<svg width="48" height="46" viewBox="0 0 48 46" fill="none" xmlns="http://www.w3.org/2000/svg">
<path d="M11.1823 0.651717C11.8215 1.53953 13.6256 5.35235 14.6571 7.57442C14.8193 7.92373 14.381 8.23929 14.1011 7.97463C12.3211 6.29163 9.2775 3.37113 8.63831 2.48322C8.13253 1.78075 8.292 0.801249 8.99456 0.295467C9.69703 -0.210315 10.6765 -0.0507523 11.1823 0.651717Z" fill="#FFF082"/>
<path d="M36.8177 0.651717C36.1785 1.53953 34.3744 5.35235 33.343 7.57442C33.1808 7.92373 33.6191 8.23929 33.8989 7.97463C35.6789 6.29163 38.7224 3.37103 39.3617 2.48322C39.8675 1.78075 39.708 0.801249 39.0055 0.295467C38.303 -0.210315 37.3235 -0.0507523 36.8177 0.651717Z" fill="#FFF082"/>
<path d="M46.9183 26.6867C45.8782 26.3475 41.6974 25.7871 39.2671 25.4796C38.8851 25.4313 38.7177 25.9447 39.0547 26.1309C41.199 27.3155 44.9062 29.3277 45.9463 29.6669C46.7692 29.9353 47.6539 29.4858 47.9223 28.6627C48.1907 27.8397 47.7412 26.9551 46.9183 26.6867Z" fill="#FFF082"/>
<path d="M1.08176 26.6867C2.12182 26.3475 6.30261 25.7871 8.73289 25.4796C9.11492 25.4313 9.28236 25.9447 8.94533 26.1309C6.80098 27.3155 3.09382 29.3277 2.05376 29.6669C1.23082 29.9353 0.346098 29.4858 0.0776916 28.6627C-0.190715 27.8397 0.258817 26.9551 1.08176 26.6867Z" fill="#FFF082"/>
<path d="M22.4807 44.3756C22.4807 43.2816 23.2443 39.1332 23.7055 36.7272C23.778 36.3491 24.3181 36.3491 24.3906 36.7272C24.8518 39.1332 25.6154 43.2816 25.6154 44.3756C25.6154 45.2412 24.9137 45.9429 24.0481 45.9429C23.1824 45.943 22.4807 45.2412 22.4807 44.3756Z" fill="#FFF082"/>
</svg>
